<svg width="1200" height="1200" viewBox="0 0 985 887" fill="none" xmlns="http://www.w3.org/2000/svg">
<path d="M224.824 265.667C228.836 262.23 231.757 259.101 231.35 258.679C230.942 258.256 227.36 260.7 223.348 264.138C219.337 267.575 216.415 270.703 216.823 271.126C217.23 271.548 220.813 269.104 224.824 265.667Z" fill="black"/>
<path d="M348.224 713.677H665.324C663.665 713.677 665.626 691.118 665.763 689.179C666.339 680.561 666.147 671.905 665.187 663.325C663.226 645.766 658.852 627.264 647.567 612.612C634.486 595.66 611.958 586.539 592.144 578.463C591.212 578.088 590.279 577.714 589.347 577.339C581.257 574.096 573.071 571.047 564.926 567.933C561.087 566.473 556.658 565.31 553.079 563.359C549.679 561.511 548.335 558.566 546.429 555.452C526.41 522.944 516.468 516.6 478.487 524.959C475.731 525.592 473.112 526.458 471.521 529.042C472.316 529.378 473.084 529.701 473.838 529.998C476.622 531.161 479.405 532.285 482.161 533.448C487.962 535.011 493.693 536.794 499.534 538.099C503.936 539.055 504.635 541.252 503.209 545.206C495.777 565.788 485.466 585.402 472.44 602.999C459.647 620.274 443.275 637.213 425.559 649.488C418.305 654.514 410.723 659.242 403.003 663.506C386 672.912 368.285 678.507 349.856 684.231L348.594 695.937C348.224 701.415 348.595 707.514 348.265 713.69L348.224 713.677Z" fill="white"/>
<path d="M319.786 713.676H1.06813C2.74097 713.676 0.76646 691.97 0.629342 690.109C0.053445 681.827 0.245442 673.493 1.21898 665.237C3.19349 648.35 7.58125 630.546 18.9346 616.449C32.0843 600.131 54.7363 591.357 74.6458 583.592C75.5782 583.23 76.5106 582.869 77.4567 582.507C85.5879 579.393 93.815 576.447 102.015 573.463C105.868 572.054 110.324 570.943 113.93 569.057C117.344 567.274 118.688 564.444 120.622 561.459C140.737 530.179 150.733 524.08 188.92 532.13C191.69 532.737 194.323 533.564 195.913 536.058C195.118 536.381 194.35 536.691 193.582 536.988C190.785 538.099 187.988 539.184 185.218 540.308C179.391 541.807 173.618 543.539 167.763 544.779C163.334 545.709 162.635 547.815 164.061 551.614C171.534 571.421 181.9 590.285 194.995 607.211C208.089 624.137 224.31 640.12 242.122 651.929C249.403 656.761 257.041 661.309 264.802 665.418C281.886 674.463 299.698 679.85 318.223 685.355L319.484 696.621C319.855 701.893 319.484 707.759 319.813 713.702L319.786 713.676Z" fill="white"/>
<path d="M529.015 438.185C529.015 438.185 514.453 484.571 473.139 508.319C431.825 532.068 386.425 534.226 386.425 534.226C386.425 534.226 479.899 510.774 529.015 438.185Z" fill="white"/>
<path d="M609.394 266.458C606.487 258.422 606.747 251.626 611.574 244.287C617.168 235.785 619.554 226.482 618.498 216.727C617.127 203.975 608.105 194.401 598.698 185.098C598.177 184.569 597.656 184.065 597.108 183.548C583.108 146.544 605.403 181.7 590.43 141.737C590.43 141.737 590.426 141.724 590.416 141.699C589.799 139.993 591.842 138.533 593.378 139.618C597.588 142.629 601.893 145.678 607.309 147.151C590.005 111.814 568.299 80.4816 525.793 67.1607C547.375 56.5013 555.383 43.9556 551.584 27.0686C533.828 45.3252 511.285 52.6252 486.042 54.0077C460.936 55.3385 436.885 51.514 414.233 40.9451C411.669 38.1931 407.075 37.7279 404.758 33.3996C413.822 32.6373 422.529 32.8957 430.893 30.1307C438.914 27.495 448.101 22.8436 448.211 13.696C432.483 19.7686 414.672 18.8771 398.026 15.6469C381.38 12.4168 365.282 6.96442 348.567 4.07025C323.187 -0.309775 297.353 -0.710307 272.288 5.50442C268.175 6.52513 263.91 7.17115 260.002 8.64408C227.876 20.5825 200.74 38.8779 179.884 65.0934C180.721 65.7394 181.42 66.4242 181.996 67.1219C181.9 67.2253 181.763 67.3028 181.667 67.4062C179.116 71.6957 175.729 75.4297 172.74 79.4222C172.466 80.6238 172 81.8383 171.534 83.014C169.724 87.5491 149.019 89.2934 137.391 102.317C121.705 119.902 114.163 149.438 112.724 152.965C110.996 157.229 109.995 161.376 109.597 165.446C97.2566 183.147 89.4821 202.399 88.2343 223.808C87.7681 231.999 88.7553 240.527 85.2451 248.357C80.7751 258.37 78.9514 268.603 79.0199 279.133C79.1708 302.519 85.0668 325.143 92.91 347.443C95.4741 354.692 96.3517 361.591 93.2939 368.814C91.1138 373.93 90.7161 379.37 90.1677 384.745C88.7828 398.699 93.0608 410.844 107.115 419.759C109.858 421.516 112.436 423.415 115.123 425.211C129.671 434.902 145.399 443.222 160.619 452.15C170.176 457.758 179.651 463.456 188.358 470.032C196.229 476.002 197.888 483.108 195.721 491.235C191.909 505.499 182.092 516.572 168.75 525.784C167.379 526.753 165.117 527.128 165.034 529.105H169.655C181.639 524.44 190.497 516.61 199.972 508.484C202.138 514.685 200.068 519.711 196.887 524.582C195.913 526.094 194.926 527.606 193.925 529.105H195.077C202.276 527.761 205.745 523.368 208.377 518.2C210.791 513.419 211.613 508.303 213.67 503.341C215.535 507.45 215.096 511.933 217.194 516.184C224.119 505.641 225.86 489.271 218.456 479.852C215.137 475.601 212.505 470.976 209.433 466.583C191.567 441.091 177.635 414.436 173.755 384.822C172.507 375.339 171.575 365.777 180.967 358.025C183.175 356.19 184.395 353.451 185.712 350.996C186.041 350.363 186.356 349.743 186.672 349.123C172.055 341.061 162.868 328.102 157.712 313.992C160.962 316.447 164.733 318.515 168.956 320.272C172.274 319.303 170.848 317.029 170.574 315.039C169.271 305.891 167.886 296.757 166.899 287.544C166.556 284.547 165.404 281.187 168.311 278.552C168.133 278.216 168.01 277.893 167.859 277.531C167.927 277.647 168.037 277.789 168.161 277.919C169.148 278.901 170.766 279.159 172.178 279.521C179.87 281.472 185.191 288.345 187.604 295.542C190.058 302.7 190.182 310.336 191.279 317.778C192.06 323.101 193.431 328.489 195.543 333.58H195.365C196.119 335.466 196.969 337.236 197.888 338.942C200.411 343.503 203.578 347.34 207.418 350.518C208.281 351.229 209.173 351.862 210.05 352.469C210.146 352.573 210.283 352.676 210.434 352.728C210.448 352.767 210.489 352.792 210.53 352.831C210.914 353.051 211.257 353.296 211.627 353.516C212.025 353.774 212.477 354.02 212.875 354.252C213.711 354.731 214.548 355.183 215.439 355.596C215.439 355.596 215.48 355.596 215.48 355.635C215.782 355.777 216.097 355.919 216.399 356.023C217.756 356.669 219.155 357.211 220.581 357.689C220.691 357.754 220.814 357.793 220.924 357.831C220.965 357.831 220.992 357.87 221.033 357.87C221.075 357.87 221.143 357.922 221.335 357.857C222.254 358.826 223.611 359.24 224.914 358.826C225.161 359.111 225.243 359.046 225.38 359.111C226.175 359.214 226.916 359.395 227.67 359.653C229.219 360.196 230.755 360.906 232.634 360.906C233.936 360.906 235.239 360.906 236.514 360.868C236.816 360.906 237.158 360.932 237.474 360.971C246.99 361.669 256.547 361.023 266.09 361.255C281.64 361.578 298.683 363.826 311.381 355.402C321.13 348.955 325.805 337.611 328.26 326.654C330.714 315.672 331.523 304.238 335.952 293.849C337.488 290.309 339.476 286.847 342.589 284.443C347.388 280.748 354.518 280.206 360.099 282.738C370.15 287.351 371.219 297.648 372.645 306.835C374.373 318.23 377.005 329.613 382.23 340.092C385.425 346.539 389.182 352.469 395.516 356.514C401.467 360.377 408.556 362.289 415.673 363.064C429.673 364.615 444.728 365.338 458.797 364.963C473.194 364.576 486.782 359.847 497.327 350.725C497.601 350.506 497.834 350.286 498.067 350.066C498.753 349.459 499.438 348.813 500.069 348.167C500.453 347.831 500.796 347.43 501.166 347.082C501.577 346.642 501.975 346.151 502.386 345.673C503.003 344.937 503.607 344.2 504.155 343.399C510.71 334.51 513.822 323.024 515.358 311.873C516.619 314.445 516.962 317.145 516.441 320.259C515.701 324.665 514.316 328.941 512.574 333.166C511.258 336.396 509.873 339.614 508.296 343.399C515.659 340.944 519.142 335.802 525.025 330.957C526.231 348.348 516.51 362.005 510.188 376.669C512.739 376.346 513.493 375.093 514.7 374.357C516.537 373.245 518.539 371.45 520.747 372.509C522.817 373.491 521.597 375.675 521.309 377.354C519.938 385.094 516.894 392.458 513.644 399.745C509.188 409.746 503.867 419.423 495.531 428.726C499.48 427.77 502.428 426.994 505.335 426.4C505.348 426.4 505.348 426.387 505.376 426.387C505.609 426.335 505.842 426.297 506.075 426.245C507.323 425.987 509.119 425.806 509.914 426.348C510.408 426.684 510.559 427.046 510.545 427.421C514.768 437.15 499.123 473.275 499.123 473.275C503.525 489.801 504.937 507.179 529.796 512.114C530.153 510.344 529.042 509.788 528.494 508.987C519.513 495.718 518.662 481.906 524.449 467.681C525.134 466.014 525.806 463.572 528.466 463.43C531.387 463.288 532.525 465.639 533.567 467.448C535.034 470.019 536.022 472.771 537.338 475.407C537.982 476.712 537.955 478.405 539.971 479.606C544.783 467.978 549.679 456.802 555.616 445.975C557.371 442.796 559.14 439.618 561.91 436.93C563.445 435.431 565.104 433.067 567.915 434.256C570.329 435.276 569.286 437.641 568.82 439.476C567.394 445.07 565.351 450.51 563.061 455.897C562.376 457.551 560.909 459.192 561.8 461.44C565.927 459.709 568.025 456.905 569.849 453.946C574.799 445.858 576.28 437.034 577.555 428.222C578.172 424.087 578.062 420.16 583.094 417.511C584.849 416.606 586.015 414.513 586.728 412.769C590.883 402.316 596.847 392.91 604.937 383.944C615.852 371.824 619.019 357.004 620.39 342.133C622.776 316.344 618.279 291.11 609.407 266.471L609.394 266.458ZM521.295 226.586C516.935 226.689 512.739 227.296 508.735 228.356C509.722 235.307 510.559 242.284 511.135 249.248H365.597C362.622 249.248 363.376 251.974 360.51 253.874C358.974 254.894 356.397 255.67 351.639 255.67C345.701 255.67 343.357 253.499 341.437 251.677C340.052 250.372 338.873 249.248 336.761 249.248H192.403C190.401 249.209 188.331 249.248 186.48 249.985C184.67 250.695 183.23 252.039 181.639 253.124C171.177 252.905 166.789 252.814 165.72 249.248C165.267 247.788 165.377 245.76 165.843 242.917C166.186 240.824 166.748 238.292 167.406 235.217C168.503 230.216 169.806 225.268 171.163 220.358C171.78 218.2 172.425 216.056 173.083 213.911C180.213 206.288 187.069 198.484 193.733 190.525C203.496 186.235 212.902 181.377 221.129 174.659C227.121 169.749 232.263 163.986 237.364 158.25C243.068 151.841 248.745 145.446 254.449 139.037C252.557 142.215 250.61 145.394 248.663 148.559C232.976 173.948 215.425 198.109 198.176 222.529C194.254 228.085 190.689 233.782 186.987 239.377C187.261 239.687 187.481 239.984 187.727 240.243C192.458 237.62 197.271 235.087 201.933 232.426C210.804 227.219 285.657 189.814 305.224 177.152C323.502 165.304 340.861 150.859 353.339 139.27C387.673 168.328 432.552 185.098 478.514 190.719C487.523 197.541 496.792 204.053 505.856 210.784C505.897 210.823 505.951 210.849 505.979 210.887C511.669 215.074 517.072 219.557 522.584 224.002C523.078 224.363 523.722 225.229 523.558 225.668C523.283 226.534 522.2 226.586 521.295 226.586Z" fill="white"/>
<path d="M509.887 426.35C509.092 425.807 507.282 425.988 506.048 426.246C505.814 426.298 505.581 426.337 505.348 426.388C507.611 425.562 509.188 425.471 509.901 426.35H509.887Z" fill="white"/>
<path d="M351.556 685.005C351.556 685.005 332.785 688.493 317.03 685.896" stroke="white" stroke-miterlimit="10"/>
<path d="M472.645 334.871C474.551 332.661 477.17 330.891 479.433 329.018C481.942 326.938 484.479 324.884 487.002 322.817C491.993 318.734 496.943 314.613 501.632 310.22C503.511 308.463 500.604 305.712 498.725 307.482C494.036 311.874 489.086 315.995 484.095 320.078C481.64 322.08 479.172 324.083 476.732 326.098C474.291 328.114 471.699 329.858 469.739 332.132C468.079 334.057 470.973 336.808 472.645 334.871Z" fill="black"/>
<path d="M482.354 342.287C492.116 333.114 502.496 324.536 513.164 316.332C515.221 314.756 512.286 312.03 510.257 313.593C499.576 321.797 489.196 330.375 479.447 339.548C477.568 341.318 480.475 344.057 482.354 342.287Z" fill="black"/>
<path d="M228.918 286.315C238.68 277.143 249.06 268.564 259.728 260.36C261.785 258.784 258.851 256.058 256.821 257.621C246.14 265.825 235.76 274.404 226.011 283.576C224.132 285.346 227.039 288.085 228.918 286.315Z" fill="black"/>
<path d="M220.691 278.563C230.453 269.39 240.833 260.812 251.501 252.608C253.558 251.032 250.623 248.306 248.594 249.869C237.913 258.073 227.533 266.652 217.784 275.824C215.905 277.594 218.812 280.333 220.691 278.563Z" fill="black"/>
<path d="M332.552 687.757V713.505C332.552 714.758 334.608 714.758 334.608 713.505V687.757C334.608 686.504 332.552 686.504 332.552 687.757Z" fill="white"/>
<path d="M784.658 814.904C787.814 816.72 792.15 816.392 795.621 814.237C798.194 812.646 801.081 811.651 804.507 812.615C804.833 812.708 805.248 812.759 805.563 812.697C812.955 811.209 820.47 812.523 827.906 812.102C831.602 811.897 835.331 811.415 838.825 810.409C843.711 809.003 848.598 807.566 853.147 805.535C855.652 804.416 857.371 802.671 859.326 801.153C861.089 799.778 863.572 799.223 865.156 797.828C868.593 794.79 871.828 791.619 875.154 788.5C876.254 787.474 877.355 786.447 878.434 785.411C879.86 784.026 881.972 784.292 883.837 784.118C888.757 783.666 893.059 782.076 897.059 779.993C898.62 779.182 899.249 779.428 900.013 780.588C901.945 783.502 903.428 786.601 905.798 789.341C908.539 792.522 910.932 795.94 914.122 798.823C917.762 802.107 922.345 804.683 927.512 806.509C928.916 807.002 930.5 806.899 931.994 806.961C936.6 807.135 941.194 807.166 945.699 806.078C949.518 805.155 951.821 802.907 953.663 800.486C954.719 799.09 955 797.171 955 795.498C955 791.63 954.079 787.976 950.889 784.693C947.923 781.635 945.542 778.238 942.969 774.964C938.352 769.094 935.667 762.537 932.062 756.318C929.017 751.064 926.344 745.533 921.48 741.11C918.514 738.411 914.762 736.113 910.853 734.122C909.269 733.311 907.337 733.609 905.562 733.783C901.069 734.214 896.575 734.697 892.082 735.199C890.251 735.405 889.296 734.84 889.173 733.455C888.712 728.129 887.724 722.823 887.712 717.467C887.712 714.111 886.443 711.125 883.702 708.508C882.669 707.523 881.882 706.374 881.04 705.286C877.996 701.376 873.783 699.478 867.807 699.806C862.201 700.114 856.686 700.627 851.159 701.592C846.924 702.33 842.611 703.049 838.274 703.469C836.87 703.603 836.151 703.049 835.702 702.094C834.534 699.591 833.186 697.128 832.197 694.593C831.557 692.941 830.31 691.627 829.209 690.211C826.064 686.178 823.244 681.981 819.032 678.502C818.537 678.102 818.088 677.63 817.482 677.353C816.617 676.963 815.673 677.014 814.875 677.568C814.134 678.082 814.404 678.666 814.696 679.262C815.044 679.959 815.617 680.503 816.347 680.986C822.301 684.937 826.367 689.934 829.805 695.311C830.883 697.005 831.961 698.677 832.961 700.401C833.444 701.243 833.714 702.074 833.714 702.977C833.714 703.747 833.343 704.301 832.287 704.393C830.647 704.537 829.052 705.019 827.367 704.906C826.479 704.845 825.704 705.009 824.907 705.378C821.492 706.928 817.695 705.758 816.403 702.864C814.718 699.118 813.73 695.291 813.224 691.33C812.741 687.523 811.73 683.746 810.932 679.959C810.73 678.974 810.663 678.205 812.236 677.681C814.145 677.035 813.999 673.772 812.067 673.043C809.708 672.15 808.798 670.847 808.45 668.764C807.776 664.823 808.192 660.79 806.484 656.911C805.192 653.956 802.833 652.057 798.98 651.575C791.218 650.6 783.478 650.816 775.885 652.601C771.414 653.648 767.201 655.105 763.247 657.024C759.147 659.015 758.596 662.104 758.551 665.439C758.495 670.662 760.09 675.906 759.091 681.068C758.259 685.368 758.282 689.708 757.282 693.977C756.664 696.594 754.148 698.349 750.744 698.534C749.936 698.575 749.16 698.708 748.509 699.077C746.521 700.196 744.465 700.134 742.398 699.272C738.77 697.754 734.995 697.148 730.929 697.969C729.996 698.154 729.086 697.969 728.165 697.784C726.278 697.405 724.38 697.148 722.403 697.477C720.437 697.805 718.561 697.179 716.651 696.974C715.202 696.82 715.224 695.835 715.887 695.014C717.64 692.848 719.134 690.591 720.515 688.282C720.639 688.087 720.74 687.83 720.965 687.728C724.582 685.932 726.75 683.069 729.637 680.739C730.917 679.703 732.591 679.159 734.052 678.379C738.579 675.978 742.847 673.156 748.397 672.119C748.745 672.058 749.071 671.924 749.396 671.801C749.936 671.606 750.497 671.35 750.34 670.816C750.16 670.17 749.318 670.067 748.778 670.252C746.498 671.011 743.926 670.867 741.713 671.668C740.185 672.212 738.624 672.53 737.051 672.91C734.973 673.423 732.827 674.09 731.12 675.106C728.952 676.399 726.312 677.281 724.559 678.861C722.706 680.534 721.392 682.566 718.37 683.233C715.943 686.968 711.596 689.729 709.484 693.639C708.046 696.296 706.8 696.502 703.137 696.081C697.532 695.445 691.983 695.322 687.197 698.503C683.884 700.699 680.12 702.454 677.301 705.132C675.459 706.866 674.897 708.878 674.324 710.94C672.897 715.979 673.425 721.151 672.65 726.23C671.707 732.418 670.864 738.606 667.101 744.302C666.045 745.903 664.113 746.836 662.821 748.242C659.485 751.854 658.35 755.703 660.147 760.002C661.102 762.281 661.844 764.61 662.832 766.878C663.461 768.345 662.832 769.3 661.372 770.203C658.507 771.978 656.249 774.174 654.261 776.555C651.543 779.828 648.802 783.194 643.87 784.682C641.04 785.534 638.13 786.499 634.962 786.519C626.38 786.57 617.798 787.043 609.215 786.714C605.643 786.581 603.082 788.028 600.487 789.464C599.049 790.265 597.802 791.281 596.342 792.102C592.264 794.39 590.591 797.869 589.411 801.43C588.389 804.498 588.153 807.669 588.007 810.86C587.883 813.816 589.4 816.002 592.287 817.52C594.871 818.885 597.679 820.096 600.847 820.558C602.004 820.722 602.992 821.04 603.947 821.605C606.587 823.175 609.699 824.16 612.799 824.971C614.798 825.494 616.551 826.346 618.461 826.961C622.684 828.347 627.2 828.86 631.57 829.537C636.142 830.245 641.028 830.317 645.488 828.48C646.858 827.916 648.319 827.793 649.891 828.008C654.115 828.583 657.609 827.557 661.102 825.556C665.056 823.288 669.561 821.471 674.447 820.589C676.784 820.168 678.525 818.824 681.053 818.68C683.468 818.536 685.67 818.68 687.737 819.563C688.972 820.086 690.23 820.363 691.623 820.476C695.701 820.814 699.621 821.656 703.441 822.826C705.317 823.4 707.384 823.483 709.406 823.483C716.393 823.472 723.414 823.657 730.345 822.846C738.904 821.851 747.588 822.733 756.136 821.666C760.809 821.081 765.46 820.825 769.942 819.234C773.458 817.982 777.423 817.366 781.445 817.254C784.141 817.172 784.265 816.884 784.635 814.955L784.658 814.904ZM837.028 755.703C839.634 754.656 842.172 755.559 844.543 755.046C845.161 754.912 845.408 755.497 845.722 755.877C847.834 758.422 848.755 761.367 850.384 764.076C853.215 768.807 854.473 774.113 859.146 778.156C859.64 778.587 859.528 779.069 859.393 779.582C859.157 780.495 859.55 781.286 860.528 781.778C863.437 783.246 866.347 784.754 869.649 785.678C870.885 786.027 870.862 786.386 870.289 787.114C868.672 789.167 866.234 790.716 863.763 791.896C861.381 793.036 859.079 794.308 857.113 795.704C853.63 798.166 849.71 800.085 845.857 802.097C843.487 803.328 840.746 803.882 837.926 804.118C836.634 804.231 835.545 804.447 834.781 805.329C834.017 806.191 833.107 806.366 832.164 805.452C831.478 804.785 830.591 804.714 829.625 804.919C828.49 805.165 827.356 805.134 826.187 805.104C821.436 805.001 816.673 804.96 811.921 804.837C808.248 804.744 804.53 804.806 800.924 804.344C797.969 803.964 795.161 803.533 792.229 804.252C791.735 804.375 791.016 804.283 790.566 804.077C788.612 803.164 786.534 803.369 784.456 803.605C781.535 803.934 778.637 804.385 775.705 804.652C774.076 804.806 773.211 805.34 773.02 806.602C772.863 807.648 772.166 808.418 770.874 808.921C770.459 806.243 769.47 805.504 767.28 806.479C763.842 807.997 759.866 807.823 756.237 808.983C750.857 810.696 745.004 811.517 739.376 812.8C731.872 814.514 724.537 816.699 716.595 817.1C710.372 817.418 704.351 816.853 698.565 815.099C697.217 814.688 696.072 814.001 694.533 814.545C694.117 814.688 693.578 814.647 693.454 814.257C693.061 813.046 691.87 812.482 690.567 811.928C689.826 811.61 689.882 810.963 690.107 810.419C690.388 809.732 690.781 809.075 691.151 808.408C692.724 805.647 693.398 802.712 693.892 799.747C693.971 799.275 693.949 798.567 693.173 798.505C692.353 798.444 692.219 799.152 692.23 799.624C692.286 803.318 689.635 806.243 687.669 809.362C686.793 810.758 686.029 812.215 683.434 812.133C682.906 812.112 682.322 812.595 681.817 812.892C681.356 813.169 680.907 813.549 680.289 813.334C677.009 812.143 674.155 813.672 671.538 814.555C665.236 816.658 658.811 818.68 653.374 822.087C652.284 822.775 650.88 823.216 649.543 823.606C648.15 824.006 646.667 824.375 645.207 823.585C644.117 823 642.893 823.216 641.646 823.298C638.658 823.493 635.591 823.944 632.671 823.626C626.256 822.928 620.089 821.348 613.967 819.727C612.204 819.265 610.373 818.834 608.755 818.146C604.981 816.535 601.33 814.76 597.611 813.067C594.657 811.722 593.691 809.783 594.826 807.269C595.309 806.212 595.601 805.134 595.825 804.026C596.881 798.926 600.42 795.037 605.756 792.05C606.306 791.742 606.946 791.681 607.598 791.65C610.339 791.506 613.069 791.506 615.81 791.63C622.718 791.948 629.638 792.163 636.557 792.368C638.198 792.42 639.95 792.44 641.219 791.414C642.039 790.747 643.017 790.326 644.084 789.967C647.027 788.982 649.981 787.915 652.441 786.355C655.834 784.21 657.362 780.967 659.395 778.074C660.956 775.867 662.855 773.856 664.686 771.804C665.09 771.342 665.685 770.952 666.236 771.537C667.561 772.963 669.617 773.015 671.482 773.148C674.257 773.353 677.132 774.4 679.761 773.661C682.592 772.861 685.243 772.953 688.029 773.302C691.219 773.702 694.353 772.789 696.903 771.845C699.239 770.983 701.576 769.341 703.261 767.494C704.744 765.862 706.249 764.23 708.001 762.773C711.416 759.92 714.124 756.852 715.427 753.014C716.134 750.931 716.269 748.683 717.572 746.765C722.099 740.105 723.829 732.962 723.975 725.553C724.009 723.993 724.413 722.351 723.65 720.771C723.268 719.991 723.773 719.273 724.627 718.708C725.346 718.226 725.716 717.559 724.885 716.974C724.099 716.43 723.481 716.995 722.818 717.344C720.021 718.821 719.561 721.397 719.111 723.48C718.325 727.113 716.37 730.345 714.91 733.752C713.461 737.118 712.764 740.628 711.169 743.973C710.012 746.405 709.282 748.961 708.136 751.393C706.755 754.317 704.16 756.801 702.587 759.653C700.026 764.323 695.667 767.35 689.388 768.643C685.973 769.341 682.569 770.685 678.862 769.454C677.188 768.9 675.402 768.756 673.583 768.715C671.179 768.663 669.381 767.935 668.55 765.954C667.955 764.538 667.573 763.071 667.011 761.644C665.584 758.012 665.528 754.266 670.044 751.146C673.987 748.417 677.188 745.082 681.165 742.342C682.58 741.367 683.973 739.91 685.715 739.817C688.534 739.674 691.533 739.089 694.162 741.162C696.622 743.091 698.947 745.071 700.554 747.421C701.351 748.581 702.272 749.463 703.609 750.479C703.665 750.028 703.767 749.802 703.699 749.617C702.194 745.451 698.532 742.424 694.544 739.633C693.634 738.996 692.398 738.411 690.893 738.319C685.917 738.001 681.794 739.376 678.132 741.829C677.514 742.249 676.908 743.101 676.043 742.629C675.279 742.208 676.458 741.716 676.615 741.223C676.694 740.956 676.806 740.689 676.863 740.412C678.334 734.009 679.682 727.595 680.109 721.089C680.221 719.417 680.3 717.754 680.435 716.081C680.536 714.747 680.648 713.413 681.468 712.182C683.704 708.816 687.152 707.01 691.96 705.891C697.004 704.721 700.857 706.117 705.013 707.595C706.934 708.282 708.125 709.863 710.372 710.15C709.203 707.472 704.935 704.947 701.554 704.886C700.992 704.875 700.273 704.886 699.891 704.639C697.802 703.316 695.723 703.326 693.522 704.414C693.016 704.66 692.353 704.66 691.949 704.249C691.455 703.747 691.803 703.285 692.286 702.915C692.634 702.649 693.061 702.33 693.499 702.259C696.521 701.787 699.464 701.13 702.609 701.007C705.451 700.894 708.08 701.889 710.911 701.571C715.034 701.12 719.156 700.668 723.346 700.678C724.548 700.678 725.784 700.36 726.986 700.647C728.412 700.976 729.794 700.966 731.243 700.699C733.344 700.319 735.242 700.699 737.275 701.376C740.589 702.495 743.061 704.947 747.273 704.763C749.295 704.68 751.048 704.219 752.901 703.829C754.496 703.49 755.451 703.736 755.305 705.214C755.035 707.872 754.878 710.54 754.541 713.188C753.766 719.201 753.306 725.173 757.417 730.694C760.27 734.532 763.359 738.032 768.381 740.659C772.941 743.039 777.682 742.906 782.546 743.142C783.467 743.183 785.017 743.009 784.995 742.167C784.961 741.069 783.388 741.377 782.377 741.274C781.883 741.223 781.366 741.244 780.861 741.264C773.222 741.49 767.504 738.914 762.876 734.327C759.439 730.93 758.17 726.939 756.709 722.977C756.226 721.664 756.395 720.207 757.203 718.893C759.181 715.64 760.012 712.12 760.821 708.631C761.45 705.902 761.472 703.1 761.775 700.329C761.854 699.621 761.753 698.841 762.82 698.349C762.528 701.489 763.663 704.444 764.427 707.42C765.291 710.807 766.741 714.132 768.763 717.149C771.459 721.161 774.694 724.968 778.075 728.724C783.579 734.82 791.488 736.287 800.104 736.811C801.575 736.903 802.597 736.893 803.586 737.847C804.777 739.007 806.271 738.74 806.731 737.303C807.057 736.277 807.821 735.979 808.978 735.836C809.978 735.712 810.989 735.589 811.932 735.333C813.831 734.83 814.572 735.548 814.516 736.831C814.426 738.863 815.549 740.69 815.931 742.639C816.482 745.492 818.931 747.709 821.121 749.956C824.94 753.856 830.097 756.359 835.837 758.227C836.331 758.391 837.005 758.412 837.533 758.309C838.825 758.073 839.207 757.468 838.319 756.616C838.016 756.329 837.567 756.123 836.971 755.754L837.028 755.703ZM874.536 745.913C873.873 745.913 873.435 745.882 873.008 745.913C871.952 746.015 870.177 745.636 870.312 746.877C870.458 748.078 872.177 747.575 873.188 747.452C874.581 747.278 875.985 747.124 877.198 747.688C879.388 748.714 881.613 749.74 883.545 751.013C884.567 751.68 885.971 752.049 886.6 753.065C888.476 756.082 889.588 759.315 890.734 762.517C891.419 764.425 891.577 766.467 892.374 768.386C894.362 773.168 889.476 776.237 884.724 777.725C882.32 778.474 879.759 778.381 877.31 778.823C875.917 779.069 874.592 779.038 873.356 778.423C872.75 778.115 872.076 777.807 871.345 777.879C866.964 778.33 864.931 776.298 863.482 773.579C859.753 766.529 855.697 759.592 852.417 752.398C850.721 748.673 849.744 744.804 847.868 741.131C846.239 737.95 845.071 734.625 843.7 731.372C842.824 729.288 843.386 726.897 841.352 725.071C841.094 724.845 841.431 724.219 841.51 723.778C841.6 723.285 841.925 722.731 841.757 722.31C840.678 719.673 842.599 717.6 844.206 715.702C846.43 713.064 849.744 711.125 853.091 709.288C855.181 708.139 856.978 706.651 859.786 706.517C861.876 706.425 863.898 705.953 865.942 705.635C868.436 705.255 871.042 705.152 873.008 706.733C875.771 708.939 877.726 711.607 879.86 714.162C880.152 714.511 880.22 715.004 880.287 715.445C881.152 721.572 882.264 727.677 882.41 733.876C882.523 738.647 883.309 743.44 885.848 747.914C886.14 748.437 886.095 749.022 885.78 749.546C885.511 750.007 884.926 750.346 884.443 749.864C883.028 748.468 880.725 748.058 879.119 746.918C877.692 745.913 876.097 745.718 874.536 745.913ZM788.803 656.603C792.442 656.665 794.891 656.685 797.25 657.342C798.115 657.589 798.801 657.927 799.104 658.615C801.058 663.038 802.856 667.43 803.047 672.212C803.249 677.24 804.417 682.227 805.473 687.215C806.192 690.632 807.832 694.121 805.967 697.661C805.878 697.825 806.024 698.113 806.17 698.287C808.573 701.007 808.046 704.362 809.45 707.308C810.607 709.74 811.247 712.305 812.269 714.778C813.55 717.857 814.684 720.946 814.696 724.209C814.696 726.087 813.763 727.482 811.427 728.334C809.101 729.186 806.608 729.422 804.181 729.914C801.002 730.571 797.98 730.571 795.116 729.063C794.004 728.478 792.723 727.954 791.431 727.708C788.724 727.195 786.826 725.83 785.332 724.229C782.815 721.541 780.749 718.616 778.794 715.661C778.412 715.096 778.187 714.552 778.76 713.947C780.119 712.49 780.456 710.786 780.58 709.042C780.838 705.265 781.411 701.551 784.085 698.256C786.646 695.106 789.679 692.479 795.116 692.736C796.048 692.777 796.969 692.9 797.891 692.992C798.306 693.033 798.778 693.187 799.036 692.797C799.261 692.458 798.98 692.151 798.756 691.863C798.329 691.319 797.599 691.258 796.868 691.207C794.026 691.012 791.499 691.381 788.893 692.582C785.837 693.988 783.703 695.906 782.13 698.174C781.479 699.118 779.929 699.96 780.277 701.079C781.175 704.003 777.704 706.261 778.446 709.124C778.524 709.411 778.333 709.832 777.783 709.873C777.232 709.904 777.075 709.534 776.974 709.216C776.087 706.497 773.099 704.352 773.357 701.315C773.379 701.007 773.121 700.678 772.941 700.37C770.077 695.547 768.751 690.334 768.504 685.183C768.201 678.923 766.752 672.694 767.392 666.393C767.695 663.386 768.673 660.801 772.593 659.651C778.187 657.999 783.883 656.583 788.792 656.603H788.803ZM911.28 784.19C912.044 779.89 912.763 776.35 917.031 774C917.829 773.558 918.728 773.415 919.514 773.035C920.076 772.768 920.693 772.378 920.39 771.834C920.019 771.157 919.177 771.506 918.716 771.742C916.807 772.686 914.717 773.404 913.313 774.944C911.74 776.678 910.965 778.607 910.157 780.557C909.988 780.967 910.067 781.552 909.404 781.676C908.561 781.819 908.37 781.162 908.09 780.762C906.517 778.453 905.293 776.001 902.619 774.225C901.81 773.692 902.069 772.891 902.372 772.183C903.63 769.289 903.035 766.498 901.709 763.717C900.08 760.31 897.665 757.201 895.553 753.979C894.756 752.758 894.913 751.362 893.902 750.223C892.341 748.458 892.262 746.672 893.689 744.763C894.486 743.696 895.632 742.834 896.351 741.746C897.497 740.002 899.552 738.873 901.821 739.007C905.731 739.253 909.909 739.119 913.077 741.634C914.133 742.465 914.616 743.491 915.504 744.343C918.941 747.627 921.132 751.475 923.491 755.2C926.647 760.167 928.77 765.513 932.163 770.418C932.444 770.829 932.59 771.28 932.185 771.68C931.713 772.132 931.129 771.916 930.612 771.732C929.905 771.475 929.175 771.219 928.534 770.87C927.905 770.531 927.287 770.336 926.524 770.428C926.074 770.49 925.659 770.624 925.535 770.983C925.389 771.414 925.838 771.598 926.265 771.65C928.197 771.906 929.489 773.979 931.927 772.82C932.062 772.758 932.522 772.912 932.657 773.066C934.072 774.533 935.679 775.919 936.802 777.52C938.51 779.952 940.06 782.466 942.115 784.723C944.407 787.237 946.687 789.741 947.844 792.676C949.316 796.401 947.642 799.08 943.115 800.434C934.668 802.969 927.344 800.886 921.278 796.319C917.885 793.764 915.38 790.491 912.583 787.474C911.516 786.324 910.999 784.97 911.257 784.2L911.28 784.19ZM821.481 723.603C820.661 721.294 821.795 719.088 822.121 716.831C822.301 715.579 823.559 714.747 824.952 714.583C827.816 714.255 830.479 713.578 833.208 712.859C837.308 711.782 841.723 711.453 845.599 709.781C845.958 709.627 846.43 709.596 846.857 709.575C847.284 709.555 847.767 709.596 847.969 709.945C848.216 710.365 847.733 710.499 847.418 710.714C846.396 711.402 845.071 711.977 844.464 712.849C842.408 715.804 839.645 718.462 838.51 721.828C837.893 723.644 837.746 725.645 836.522 727.257C835.275 728.909 835.455 730.489 836.095 732.069C837.859 736.472 839.802 740.833 841.656 745.225C842.341 746.867 843.06 748.509 843.588 750.182C844.138 751.926 843.374 752.552 841.116 752.593C838.735 752.634 836.32 752.737 834.028 752.244C831.411 751.69 828.479 751.967 826.142 750.705C821.784 748.355 819.155 745.112 818.212 741.079C818.077 740.515 817.706 740.043 817.504 739.53C816.583 737.17 815.797 734.543 817.841 732.511C820.571 729.791 822.143 727.031 821.503 723.593L821.481 723.603ZM829.67 709.452C830.445 709.483 831.153 709.401 831.4 709.883C831.703 710.458 830.86 710.571 830.501 710.868C829.793 711.474 828.917 711.751 827.85 711.843C826.434 711.966 824.963 711.987 823.682 712.603C823.121 712.869 822.525 712.849 822.177 712.387C821.683 711.72 821.042 711.053 821.245 710.222C821.402 709.565 822.188 709.647 822.829 709.627C825.176 709.514 827.569 710.273 829.681 709.452H829.67ZM890.128 739.684C890.128 739.294 890.274 738.945 890.689 738.822C892.15 738.381 893.947 738.268 894.98 738.965C896.092 739.715 894.419 740.412 893.857 741.09C893.475 741.551 892.97 741.941 892.531 742.372C892.161 742.721 891.655 742.947 891.363 742.434C890.858 741.541 890.521 740.577 890.128 739.674V739.684Z" fill="white"/>
<path d="M728.828 738.46C731.288 738.521 732.771 737.167 734.467 736.346C739.511 733.924 742.432 730.353 743.42 725.705C743.959 723.16 744.274 720.789 742.971 718.357C742.6 717.66 742.387 716.808 742.521 716.069C742.881 714.047 740.814 712.703 740.353 710.938C740.286 710.661 739.927 710.405 739.556 710.641C739.118 710.918 739.118 711.451 739.387 711.718C740.567 712.898 740.219 714.386 740.803 715.638C742.746 719.773 742.083 723.878 740.421 727.839C739.151 730.856 736.658 733.36 732.894 735.001C730.828 735.904 728.817 736.766 726.413 736.992C725.817 737.043 724.975 737.382 725.042 737.905C725.132 738.644 726.076 738.203 726.626 738.285C727.401 738.388 728.199 738.408 728.839 738.46H728.828Z" fill="white"/>
<path d="M785.624 778.656C787.275 779.928 788.792 781.149 791.319 780.975C792.072 780.924 792.667 781.303 793.184 781.704C793.914 782.247 794.813 782.36 795.767 782.309C796.273 782.278 796.846 782.237 796.958 781.775C797.093 781.232 796.576 780.903 795.981 780.872C792.746 780.688 790.308 778.687 787.062 778.533C786.646 778.512 786.23 778.338 785.612 778.666L785.624 778.656Z" fill="white"/>
<path d="M789.218 742.668C789.994 742.586 790.903 742.606 790.903 741.888C790.903 741.19 790.027 741.283 789.432 741.303C788.691 741.334 787.635 741.272 787.702 742.114C787.758 742.719 788.691 742.586 789.218 742.668Z" fill="white"/>
<path d="M855.27 778.338C855.136 778.153 855.012 777.958 854.844 777.794C854.316 777.25 854.361 776.347 853.181 776.224C853.035 776.204 852.709 776.357 852.698 776.45C852.619 777.353 853.608 777.743 854.293 778.266C854.473 778.41 854.765 778.471 855.001 778.563C855.091 778.492 855.181 778.41 855.259 778.338H855.27Z" fill="white"/>
<path d="M651.745 796.706C652.093 797.322 652.778 797.568 653.598 797.589C654.149 797.589 654.351 797.291 654.194 796.922C653.924 796.327 653.261 796.132 652.509 796.111C652.026 796.101 651.677 796.245 651.745 796.706Z" fill="white"/>
<path d="M866.066 747.337C863.527 747.224 862.089 748.856 859.988 749.399C858.393 749.81 857.146 751.021 855.731 751.872C855.248 752.16 854.855 752.478 855.068 752.991C855.124 753.124 855.327 753.288 855.495 753.319C856.124 753.411 856.405 753.032 856.585 752.673C857.068 751.698 858.36 751.503 859.326 751.175C861.64 750.384 863.617 749.009 866.268 748.763C866.931 748.702 867.964 748.65 867.885 747.953C867.784 747.091 866.683 747.429 866.077 747.327L866.066 747.337Z" fill="white"/>
<path d="M804.417 696.726C804.159 695.7 803.597 695.074 803.024 694.489C802.642 694.099 802.024 693.669 801.429 694.192C800.924 694.633 801.294 695.167 801.833 695.485C802.552 695.895 803.361 696.223 804.417 696.726Z" fill="white"/>
</svg>